<?xml version="1.0" standalone="no"?><!DOCTYPE svg PUBLIC "-//W3C//DTD SVG 1.1//EN" "http://www.w3.org/Graphics/SVG/1.1/DTD/svg11.dtd"><svg t="1712829298658" class="icon" viewBox="0 0 1024 1024" version="1.1" xmlns="http://www.w3.org/2000/svg" p-id="6990" xmlns:xlink="http://www.w3.org/1999/xlink" width="200" height="200"><path d="M141.8752 929.9456a63.8976 63.8976 0 0 1-63.8464-63.8976v-404.992a63.9488 63.9488 0 0 1 63.8976-63.8464h67.5328c6.912 0 167.2192-1.6384 211.3536-196.1984l0.4096-1.4848c19.456-66.56 59.5456-97.6896 122.4704-94.9248a115.3024 115.3024 0 0 1 87.9616 45.1584c16.2816 21.7088 32.6144 60.2112 17.9712 120.3712-8.5504 35.2256-14.6432 59.5968-18.7904 76.2368l181.8112-0.9728c10.6496-0.8192 68.2496-3.2256 107.52 38.5024 31.5392 33.6896 41.4208 84.992 29.3888 152.576-30.0032 168.2944-54.016 236.9536-57.2416 245.76-4.1472 13.3632-48.128 145.7152-159.2832 145.7152-74.2912 0-401.9712 1.3312-590.6944 2.0992z m67.2768-481.28H141.9264a12.6976 12.6976 0 0 0-12.6976 12.6464v404.992a12.6976 12.6976 0 0 0 3.7376 9.0112 12.4928 12.4928 0 0 0 8.9088 3.6864c188.7744-0.768 516.5056-2.0992 590.8992-2.0992 76.3392 0 110.1824-108.9536 110.5408-110.08l0.5632-1.6896c0-0.6144 24.4736-66.2528 54.9888-237.4144 9.0624-50.5856 3.6352-87.04-16.0768-108.3392-24.5248-26.4704-65.8944-22.6816-66.56-22.6304h-2.56l-249.9584 1.3312 9.0624-32.6144s5.888-21.4528 26.7776-107.264c7.8848-32.256 4.7104-59.0848-9.1648-77.5168a64.1536 64.1536 0 0 0-49.2032-24.7808c-32.8192-1.4336-56.32 7.68-70.912 57.3952C442.6752 335.104 373.76 392.6528 320.6144 419.4816a263.3728 263.3728 0 0 1-111.4624 28.928z" fill="#659ae8" p-id="6991"></path><path d="M245.4528 805.1712a25.6 25.6 0 0 1-25.6-25.6V548.864a25.6 25.6 0 1 1 51.2 0v230.7072a25.6 25.6 0 0 1-25.6 25.6z" fill="#659ae8" p-id="6992"></path></svg>