<?xml version="1.0" standalone="no"?><!DOCTYPE svg PUBLIC "-//W3C//DTD SVG 1.1//EN" "http://www.w3.org/Graphics/SVG/1.1/DTD/svg11.dtd"><svg t="1714809296442" class="icon" viewBox="0 0 1024 1024" version="1.1" xmlns="http://www.w3.org/2000/svg" p-id="5741" xmlns:xlink="http://www.w3.org/1999/xlink" width="200" height="200"><path d="M512 0C228.693333 0 0 228.693333 0 512s228.693333 512 512 512 512-228.693333 512-512S795.306667 0 512 0z m269.653333 390.826667L467.626667 703.146667c-10.24 10.24-22.186667 15.36-35.84 15.36-11.946667 0-25.6-5.12-35.84-15.36l-155.306667-155.306667c-18.773333-18.773333-18.773333-51.2 0-69.973333 18.773333-18.773333 51.2-18.773333 69.973333 0l119.466667 119.466666 278.186667-278.186666c18.773333-18.773333 51.2-18.773333 69.973333 0 22.186667 20.48 22.186667 52.906667 3.413333 71.68z" fill="#00D379" p-id="5742"></path></svg>